<svg width="389" height="406" viewBox="0 0 389 406" fill="none" xmlns="http://www.w3.org/2000/svg">
<path fill-rule="evenodd" clip-rule="evenodd" d="M91.2309 195.568C93.7489 225.767 115.562 251.763 137.963 270.252C181.275 306.015 214.9 317.626 216.222 317.907C218.658 318.421 221.921 316.75 222.182 314.062C222.525 310.52 222.781 306.967 222.906 303.414C223.884 275.736 217.212 248.101 204.741 223.419C198.552 211.165 190.814 199.77 181.753 189.441C172.432 178.809 161.631 168.669 149.166 161.763C137.028 155.036 122.078 152.267 109.107 158.432C102.94 161.363 97.6319 165.933 94.6354 172.147C91.1874 179.307 90.5783 187.754 91.2309 195.568Z" fill="#6554C0" fill-opacity="0.375847"/>
<path fill-rule="evenodd" clip-rule="evenodd" d="M103.071 321.58C113.325 336.932 132.788 344.522 150.352 347.947C184.318 354.577 205.935 351.131 206.731 350.902C208.204 350.481 209.475 348.651 208.826 347.147C207.97 345.168 207.059 343.205 206.082 341.274C198.462 326.263 186.718 313.466 172.7 303.902C165.745 299.154 158.201 295.308 150.259 292.401C142.083 289.414 133.251 287.11 124.475 287.003C115.922 286.896 107.014 289.707 101.816 296.701C99.3397 300.029 97.8069 303.977 98.0196 308.143C98.2651 312.943 100.42 317.611 103.071 321.58Z" fill="#6554C0" fill-opacity="0.375847"/>
<path fill-rule="evenodd" clip-rule="evenodd" d="M101.435 163.071C114.347 175.259 127.076 187.652 139.322 200.512C151.449 213.247 163.117 226.443 173.973 240.284C184.915 254.245 195.04 268.868 203.91 284.25C212.622 299.36 220.15 315.176 226.049 331.605C231.915 347.957 236.158 364.918 238.29 382.171C238.56 384.346 238.793 386.531 238.999 388.712C239.031 389.059 238.49 389.113 238.457 388.761C236.834 371.329 233.051 354.157 227.531 337.555C221.99 320.887 214.738 304.811 206.237 289.462C197.762 274.156 188.027 259.577 177.441 245.665C166.721 231.574 155.135 218.15 143.04 205.23C131.069 192.441 118.606 180.135 105.922 168.067C104.314 166.537 102.702 165.013 101.089 163.489C100.835 163.25 101.181 162.833 101.435 163.071Z" fill="#1F2144"/>
<path fill-rule="evenodd" clip-rule="evenodd" d="M101.34 301.003C123.808 304.203 145.746 310.866 166.155 320.713C176.406 325.663 186.473 331.298 195.545 338.159C203.705 344.319 211.027 351.543 217.3 359.576C224.227 368.438 229.847 378.247 233.981 388.677C234.105 388.999 233.586 389.138 233.457 388.822C225.994 369.974 213.55 353.159 197.637 340.455C188.904 333.482 179.124 327.809 169.144 322.784C159.061 317.711 148.578 313.419 137.819 309.951C125.883 306.103 113.617 303.288 101.194 301.522C100.853 301.469 100.999 300.955 101.34 301.003Z" fill="#1F2144"/>
<path fill-rule="evenodd" clip-rule="evenodd" d="M204.203 356.68C216.14 356.658 243.474 356.245 251.821 356.174C252.596 356.168 253.105 355.575 252.982 356.614C252.35 362.019 251.719 367.435 250.804 372.768C250.109 376.815 249.456 381.5 247.712 385.008C246.085 388.274 243.565 389.22 240.81 389.412C236.808 389.693 232.774 389.61 228.772 389.698C225.117 389.775 221.26 390.347 217.627 389.682C214.706 389.154 212.641 387.037 211.105 383.661C209.19 379.449 207.745 374.693 206.322 370.146C204.818 365.334 204.064 362.162 203.042 357.114C202.834 356.091 203.427 356.68 204.203 356.68Z" fill="#6554C0"/>
<path fill-rule="evenodd" clip-rule="evenodd" d="M52.3746 389L47 388.647L99.6254 135L105 135.353L52.3746 389Z" fill="#1F2144"/>
<path fill-rule="evenodd" clip-rule="evenodd" d="M204.625 386L210 385.647L157.375 132L152 132.353L204.625 386Z" fill="#1F2144"/>
<path fill-rule="evenodd" clip-rule="evenodd" d="M242.032 194H7.29349C5.09842 194 3.32505 192.141 3.32505 189.849L0 4.15637C0 1.86413 1.77877 0 3.97385 0H238.712C240.907 0 242.68 1.86413 242.68 4.15637L246 189.849C246 192.141 244.227 194 242.032 194Z" fill="#E8CBB1"/>
<path fill-rule="evenodd" clip-rule="evenodd" d="M141.909 25.2701C141.915 24.8184 141.529 24.4754 141.105 24.4537C131.839 24.0999 104.564 24.0835 102.426 24.0019C100.662 23.9366 101.032 25.575 101.032 25.8689C101.123 32.4224 101.102 51.7181 101.354 54.8914C101.461 56.3066 101.675 57.0088 103.101 57.3626C105.808 58.0321 133.002 57.9287 139.696 57.9994C141.818 58.0212 141.706 57.4333 141.818 53.8028C142.284 38.6928 141.679 36.2488 141.909 25.2701Z" fill="white"/>
<path fill-rule="evenodd" clip-rule="evenodd" d="M212.904 25.2706C212.915 24.8188 212.529 24.4704 212.1 24.4541C202.839 24.0948 175.566 24.0839 173.428 24.0022C171.665 23.9315 172.029 25.5701 172.035 25.864C172.126 32.4184 172.104 51.7224 172.356 54.8961C172.463 56.3061 172.678 57.0138 174.103 57.3676C176.81 58.0372 204.002 57.9284 210.696 57.9991C212.818 58.0263 212.706 57.433 212.818 53.8074C213.285 38.6898 212.679 36.2455 212.904 25.2706Z" fill="white"/>
<path fill-rule="evenodd" clip-rule="evenodd" d="M147.909 112.271C147.915 111.819 147.529 111.47 147.105 111.454C137.839 111.095 110.564 111.084 108.426 111.002C106.662 110.931 107.032 112.57 107.032 112.864C107.123 119.418 107.102 138.722 107.354 141.896C107.461 143.306 107.675 144.014 109.101 144.368C111.808 145.037 139.002 144.928 145.696 144.999C147.818 145.026 147.706 144.433 147.818 140.807C148.284 125.69 147.679 123.245 147.909 112.271Z" fill="white"/>
<path fill-rule="evenodd" clip-rule="evenodd" d="M74.9065 112.271C74.9172 111.819 74.5313 111.47 74.1025 111.454C64.8359 111.095 37.5666 111.084 35.4281 111.002C33.6648 110.931 34.0293 112.57 34.0347 112.864C34.1204 119.418 34.1043 138.717 34.3562 141.896C34.4634 143.306 34.6778 144.014 36.1034 144.368C38.81 145.037 66.0043 144.928 72.6983 144.999C74.8207 145.026 74.7082 144.433 74.8207 140.807C75.2816 125.69 74.6814 123.245 74.9065 112.271Z" fill="white"/>
<path fill-rule="evenodd" clip-rule="evenodd" d="M70.9041 27.2706C70.9148 26.8188 70.529 26.4704 70.1002 26.4541C60.8341 26.0948 33.5664 26.0839 31.428 26.0022C29.6649 25.9315 30.0293 27.5701 30.0346 27.864C30.1204 34.4184 30.1043 53.7169 30.3562 56.8961C30.4634 58.3061 30.6778 59.0138 32.1033 59.3676C34.8097 60.0372 62.0024 59.9284 68.6961 59.9991C70.8184 60.0263 70.7058 59.433 70.8184 55.8074C71.2846 40.6898 70.679 38.2455 70.9041 27.2706Z" fill="white"/>
<path fill-rule="evenodd" clip-rule="evenodd" d="M215.904 112.276C215.915 111.818 215.529 111.475 215.1 111.459C205.839 111.1 178.566 111.089 176.428 111.002C174.665 110.937 175.029 112.575 175.035 112.869C175.126 119.422 175.104 138.718 175.356 141.897C175.463 143.307 175.678 144.014 177.103 144.368C179.81 145.038 207.002 144.929 213.696 144.999C215.818 145.021 215.706 144.433 215.818 140.803C216.285 125.693 215.679 123.249 215.904 112.276Z" fill="white"/>
<path fill-rule="evenodd" clip-rule="evenodd" d="M120.619 26.0765C119.668 27.2023 118.809 28.3976 118.036 29.6578C117.881 29.9126 118.272 30.1443 118.427 29.8895C119.182 28.6617 120.018 27.5035 120.942 26.4054C121.133 26.1784 120.81 25.8495 120.619 26.0765Z" fill="white"/>
<path fill-rule="evenodd" clip-rule="evenodd" d="M126.909 22.0563C126.264 21.5463 124.821 20.6249 123.805 20.0338C123.579 19.9005 123.446 20.1844 123.232 20.4916C122.831 21.0827 121.893 22.4098 121.486 22.9893C121.236 22.943 118.26 23.0473 118.022 24.0673C117.888 24.641 118.387 25.9507 118.753 26.4665C119.702 27.8284 123.397 29.8915 124.261 28.5818C124.821 27.7357 124.651 25.348 124.626 25.3017C125.418 24.3454 126.191 23.3776 126.958 22.404C127.031 22.3113 127.006 22.1258 126.909 22.0563Z" fill="#78ADD9"/>
<path fill-rule="evenodd" clip-rule="evenodd" d="M133.619 115.077C132.673 116.203 131.808 117.398 131.035 118.659C130.881 118.909 131.276 119.145 131.431 118.89C132.181 117.662 133.018 116.499 133.942 115.401C134.133 115.179 133.81 114.849 133.619 115.077Z" fill="white"/>
<path fill-rule="evenodd" clip-rule="evenodd" d="M136.909 107.056C136.264 106.546 134.821 105.624 133.805 105.033C133.573 104.9 133.439 105.19 133.232 105.497C132.831 106.082 131.893 107.409 131.486 107.995C131.236 107.948 128.254 108.047 128.022 109.067C127.888 109.647 128.387 110.951 128.753 111.472C129.702 112.828 133.397 114.891 134.261 113.582C134.821 112.741 134.651 110.348 134.626 110.301C135.412 109.345 136.191 108.383 136.958 107.409C137.031 107.311 137.006 107.131 136.909 107.056Z" fill="#78ADD9"/>
<path fill-rule="evenodd" clip-rule="evenodd" d="M57.6228 111.076C56.6723 112.206 55.8083 113.397 55.0352 114.656C54.8806 114.911 55.2762 115.143 55.4308 114.893C56.1812 113.665 57.0179 112.503 57.9411 111.405C58.1321 111.178 57.8138 110.85 57.6228 111.076Z" fill="white"/>
<path fill-rule="evenodd" clip-rule="evenodd" d="M63.9105 105.056C63.2591 104.546 61.8163 103.624 60.8057 103.033C60.5744 102.9 60.4404 103.19 60.2335 103.491C59.8317 104.082 58.888 105.409 58.4862 105.995C58.2366 105.948 55.2536 106.047 55.0223 107.067C54.8883 107.647 55.3875 108.951 55.7528 109.472C56.7025 110.828 60.3978 112.891 61.2623 111.582C61.8163 110.736 61.6458 108.348 61.6276 108.301C62.4129 107.345 63.1921 106.377 63.9592 105.404C64.0323 105.311 64.0018 105.131 63.9105 105.056Z" fill="#78ADD9"/>
<path fill-rule="evenodd" clip-rule="evenodd" d="M189.62 27.0765C188.669 28.2023 187.809 29.3976 187.036 30.6578C186.881 30.9126 187.272 31.1443 187.427 30.8895C188.182 29.6663 189.02 28.5035 189.943 27.4054C190.13 27.1784 189.811 26.8495 189.62 27.0765Z" fill="white"/>
<path fill-rule="evenodd" clip-rule="evenodd" d="M195.909 23.0563C195.264 22.5463 193.821 21.6249 192.805 21.0338C192.579 20.9005 192.446 21.1844 192.232 21.4916C191.831 22.0827 190.893 23.4098 190.486 23.9893C190.236 23.9488 187.26 24.0473 187.022 25.0673C186.888 25.641 187.387 26.9507 187.753 27.4665C188.702 28.8284 192.397 30.8915 193.261 29.5818C193.821 28.7357 193.651 26.348 193.626 26.3017C194.412 25.3454 195.191 24.3776 195.958 23.404C196.031 23.3113 196.006 23.1258 195.909 23.0563Z" fill="#78ADD9"/>
<path fill-rule="evenodd" clip-rule="evenodd" d="M196.619 112.076C195.673 113.206 194.808 114.397 194.035 115.656C193.881 115.911 194.276 116.143 194.431 115.893C195.181 114.665 196.018 113.503 196.942 112.405C197.133 112.178 196.81 111.85 196.619 112.076Z" fill="white"/>
<path fill-rule="evenodd" clip-rule="evenodd" d="M202.914 108.056C202.263 107.546 200.819 106.624 199.808 106.033C199.577 105.9 199.443 106.19 199.236 106.497C198.834 107.082 197.89 108.409 197.488 108.995C197.238 108.948 194.254 109.047 194.022 110.067C193.888 110.647 194.388 111.951 194.747 112.472C195.703 113.828 199.4 115.891 200.265 114.582C200.819 113.741 200.649 111.348 200.631 111.301C201.416 110.345 202.196 109.383 202.957 108.409C203.03 108.311 203.006 108.131 202.914 108.056Z" fill="#78ADD9"/>
<path fill-rule="evenodd" clip-rule="evenodd" d="M52.6224 26.0765C51.6711 27.2065 50.8063 28.3967 50.0371 29.6564C49.8778 29.9111 50.2738 30.1427 50.4285 29.8926C51.1796 28.6653 52.0171 27.5029 52.9411 26.4053C53.1322 26.1783 52.8136 25.8495 52.6224 26.0765Z" fill="white"/>
<path fill-rule="evenodd" clip-rule="evenodd" d="M57.9105 22.0544C57.2591 21.5442 55.8163 20.6225 54.8057 20.0313C54.5744 19.9037 54.4404 20.1878 54.2335 20.495C53.8317 21.0863 52.8941 22.408 52.4862 22.9934C52.2366 22.9471 49.2536 23.0456 49.0223 24.0659C48.8883 24.6455 49.3875 25.9498 49.7528 26.4715C50.7025 27.828 54.3978 29.8917 55.2623 28.5816C55.8163 27.7411 55.6458 25.347 55.6276 25.3006C56.4129 24.3441 57.1921 23.3818 57.9592 22.408C58.0323 22.3094 58.0018 22.1297 57.9105 22.0544Z" fill="#78ADD9"/>
<path fill-rule="evenodd" clip-rule="evenodd" d="M66.7415 37.3903C44.6641 37.061 58.3359 37.3293 36.2585 37C35.9138 36.9939 35.9138 37.6036 36.2585 37.6097C58.3359 37.939 44.6641 37.6707 66.7415 38C67.0862 38.0061 67.0862 37.3964 66.7415 37.3903Z" fill="#1F2144"/>
<path fill-rule="evenodd" clip-rule="evenodd" d="M70.7375 121.39C48.662 121.055 62.338 121.329 40.2625 121C39.9125 120.994 39.9125 121.604 40.2625 121.61C62.338 121.939 48.662 121.665 70.7375 122C71.0875 122.006 71.0875 121.396 70.7375 121.39Z" fill="#1F2144"/>
<path fill-rule="evenodd" clip-rule="evenodd" d="M68.7375 132.39C46.662 132.055 60.338 132.329 38.2625 132C37.9125 131.994 37.9125 132.604 38.2625 132.61C60.338 132.939 46.662 132.665 68.7375 133C69.0875 133.006 69.0875 132.396 68.7375 132.39Z" fill="#1F2144"/>
<path fill-rule="evenodd" clip-rule="evenodd" d="M127.744 34.3421C106.053 33.9803 128.945 34.3619 107.254 34C106.915 33.9935 106.915 34.6513 107.254 34.6579C128.945 35.0197 106.053 34.6381 127.744 35C128.083 35.0065 128.088 34.3487 127.744 34.3421Z" fill="#1F2144"/>
<path fill-rule="evenodd" clip-rule="evenodd" d="M137.746 121.338C116.057 120.98 138.947 121.358 117.258 121C116.914 120.993 116.914 121.656 117.258 121.662C138.947 122.02 116.057 121.642 137.746 122C138.085 122.007 138.085 121.344 137.746 121.338Z" fill="#1F2144"/>
<path fill-rule="evenodd" clip-rule="evenodd" d="M137.746 125.342C116.057 124.98 138.947 125.362 117.258 125C116.914 124.993 116.914 125.651 117.258 125.658C138.947 126.02 116.057 125.638 137.746 126C138.085 126.007 138.085 125.349 137.746 125.342Z" fill="#1F2144"/>
<path fill-rule="evenodd" clip-rule="evenodd" d="M137.746 131.342C116.057 130.98 138.947 131.362 117.258 131C116.914 130.993 116.914 131.651 117.258 131.658C138.947 132.02 116.057 131.638 137.746 132C138.085 132.007 138.085 131.349 137.746 131.342Z" fill="#1F2144"/>
<path fill-rule="evenodd" clip-rule="evenodd" d="M206.632 37.3378C175.649 36.9802 208.347 37.3576 177.364 37C176.879 36.9934 176.879 37.6556 177.364 37.6622C208.347 38.0198 175.649 37.6424 206.632 38C207.123 38.0066 207.123 37.3444 206.632 37.3378Z" fill="#1F2144"/>
<path fill-rule="evenodd" clip-rule="evenodd" d="M206.636 41.3421C175.649 40.9803 208.351 41.3619 177.364 41C176.879 40.9935 176.879 41.6513 177.364 41.6579C208.351 42.0197 175.649 41.6381 206.636 42C207.121 42.0065 207.121 41.3487 206.636 41.3421Z" fill="#1F2144"/>
<path fill-rule="evenodd" clip-rule="evenodd" d="M206.636 53.3421C175.649 52.9803 208.351 53.3619 177.364 53C176.879 52.9935 176.879 53.6513 177.364 53.6579C208.351 54.0197 175.649 53.6381 206.636 54C207.121 54.0065 207.121 53.3487 206.636 53.3421Z" fill="#1F2144"/>
<path fill-rule="evenodd" clip-rule="evenodd" d="M135.742 53.3903C113.664 53.061 127.336 53.3293 105.258 53C104.914 52.9939 104.914 53.6036 105.258 53.6097C127.336 53.939 113.664 53.6707 135.742 54C136.086 54.0061 136.086 53.3964 135.742 53.3903Z" fill="#1F2144"/>
<path fill-rule="evenodd" clip-rule="evenodd" d="M203.742 122.342C182.053 121.98 204.943 122.362 183.254 122C182.915 121.993 182.915 122.651 183.254 122.658C204.943 123.02 182.053 122.638 203.742 123C204.086 123.007 204.086 122.349 203.742 122.342Z" fill="#1F2144"/>
<path fill-rule="evenodd" clip-rule="evenodd" d="M72.966 68.7314C72.966 68.4698 72.8176 68.2736 72.6521 68.2627C69.0333 68.0556 58.388 68.0502 57.5546 68.0011C56.8696 67.963 57.0123 68.9004 57.0123 69.0693C57.0466 72.8243 57.0409 81.4025 57.1379 83.2228C57.1779 84.0294 57.2635 84.4327 57.8172 84.6343C58.8731 85.0213 69.4899 84.9613 72.1041 84.9995C72.9318 85.0158 72.8861 84.6725 72.9318 82.596C73.1087 73.947 72.8747 75.0152 72.966 68.7314Z" fill="white"/>
<path fill-rule="evenodd" clip-rule="evenodd" d="M148.966 155.726C148.966 155.47 148.818 155.268 148.652 155.263C145.033 155.056 134.388 155.05 133.555 155.001C132.87 154.963 133.012 155.9 133.012 156.069C133.047 159.819 133.041 168.403 133.138 170.218C133.178 171.03 133.263 171.433 133.817 171.635C134.873 172.016 145.49 171.956 148.104 172C148.932 172.011 148.886 171.673 148.932 169.596C149.109 160.942 148.875 162.01 148.966 155.726Z" fill="white"/>
<path fill-rule="evenodd" clip-rule="evenodd" d="M144.966 68.7265C144.966 68.4648 144.818 68.2686 144.652 68.2577C141.033 68.056 130.388 68.0451 129.555 68.0015C128.87 67.9579 129.012 68.901 129.012 69.07C129.047 72.8207 129.041 81.4069 129.138 83.2222C129.178 84.0345 129.263 84.4379 129.817 84.6396C130.873 85.0213 141.49 84.9613 144.104 84.9995C144.932 85.0158 144.886 84.6778 144.932 82.6008C145.109 73.9437 144.875 75.0122 144.966 68.7265Z" fill="#6554C0"/>
<path fill-rule="evenodd" clip-rule="evenodd" d="M47.9635 68.7314C47.9692 68.4698 47.8152 68.2736 47.6496 68.2627C44.0314 68.0556 33.3934 68.0502 32.5545 68.0011C31.8697 67.963 32.0123 68.9004 32.0123 69.0693C32.0466 72.8243 32.0409 81.4025 32.1379 83.2228C32.1836 84.0294 32.2635 84.4327 32.8227 84.6343C33.8785 85.0213 44.4879 84.9613 47.1018 84.9995C47.9293 85.0158 47.8836 84.6725 47.9293 82.596C48.1119 73.947 47.8722 75.0152 47.9635 68.7314Z" fill="#E7B05B"/>
<path fill-rule="evenodd" clip-rule="evenodd" d="M70.754 73.0099C67.253 73.0099 63.747 73 60.246 73C59.918 73 59.918 73.9901 60.246 73.9901C63.747 73.9901 67.253 74 70.754 74C71.082 74 71.082 73.0099 70.754 73.0099Z" fill="#1F2144"/>
<path fill-rule="evenodd" clip-rule="evenodd" d="M142.75 74.3457C139.25 74.3457 135.751 74.3457 132.246 74.3391C131.918 74.3391 131.918 74.9935 132.246 74.9935C135.751 75 139.25 75 142.75 75C143.083 75 143.083 74.3457 142.75 74.3457ZM132.246 69.6543C135.751 69.6543 139.25 69.6543 142.75 69.6609C143.083 69.6609 143.083 69.0065 142.75 69.0065C139.25 69 135.751 69 132.246 69C131.918 69 131.918 69.6543 132.246 69.6543Z" fill="#1F2144"/>
<path fill-rule="evenodd" clip-rule="evenodd" d="M126.966 153.731C126.966 153.47 126.818 153.274 126.652 153.263C123.033 153.056 112.388 153.05 111.555 153.001C110.87 152.963 111.012 153.9 111.012 154.069C111.047 157.824 111.041 166.403 111.138 168.223C111.178 169.03 111.263 169.433 111.817 169.635C112.873 170.022 123.49 169.962 126.104 170C126.932 170.011 126.886 169.678 126.932 167.596C127.109 158.947 126.875 160.015 126.966 153.731Z" fill="#E7B05B"/>
<path fill-rule="evenodd" clip-rule="evenodd" d="M122.75 161.346C119.25 161.346 115.751 161.34 112.246 161.34C111.918 161.34 111.918 161.993 112.246 161.993C115.751 161.993 119.25 162 122.75 162C123.083 162 123.083 161.346 122.75 161.346ZM112.246 156.654C115.751 156.66 119.25 156.66 122.75 156.66C123.083 156.66 123.083 156.007 122.75 156.007C119.25 156.007 115.751 156.007 112.246 156C111.918 156 111.918 156.654 112.246 156.654Z" fill="#1F2144"/>
<path fill-rule="evenodd" clip-rule="evenodd" d="M76.9635 153.731C76.9692 153.47 76.8151 153.274 76.6496 153.263C73.0371 153.056 62.3933 153.05 61.5601 153.001C60.8695 152.963 61.0122 153.9 61.0122 154.069C61.0464 157.824 61.0407 166.403 61.1378 168.223C61.1834 169.03 61.2633 169.433 61.8226 169.635C62.8784 170.022 73.4879 169.962 76.1018 170C76.9293 170.011 76.8836 169.678 76.9293 167.596C77.1119 158.947 76.8722 160.015 76.9635 153.731Z" fill="#6554C0"/>
<path fill-rule="evenodd" clip-rule="evenodd" d="M74.754 161.346C71.2492 161.346 67.7495 161.34 64.2498 161.34C63.9167 161.34 63.9167 161.993 64.2498 161.993C67.7495 161.993 71.2492 162 74.754 162C75.082 162 75.082 161.346 74.754 161.346ZM64.2498 156.654C67.7495 156.66 71.2492 156.66 74.754 156.66C75.082 156.66 75.082 156.007 74.754 156.007C71.2492 156.007 67.7495 156.007 64.2498 156C63.9167 156 63.9167 156.654 64.2498 156.654Z" fill="#1F2144"/>
<path fill-rule="evenodd" clip-rule="evenodd" d="M53.9635 153.731C53.9692 153.47 53.8151 153.274 53.6496 153.263C50.0371 153.056 39.3933 153.05 38.5601 153.001C37.8695 152.963 38.0122 153.9 38.0122 154.069C38.0464 157.824 38.0407 166.403 38.1378 168.223C38.1834 169.03 38.2633 169.433 38.8226 169.635C39.8784 170.022 50.4879 169.962 53.1018 170C53.9293 170.011 53.8836 169.678 53.9293 167.596C54.1119 158.947 53.8722 160.015 53.9635 153.731Z" fill="#6554C0"/>
<path fill-rule="evenodd" clip-rule="evenodd" d="M51.754 161.346C48.2492 161.346 44.7495 161.34 41.2498 161.34C40.9167 161.34 40.9167 161.993 41.2498 161.993C44.7495 161.993 48.2492 162 51.754 162C52.082 162 52.082 161.346 51.754 161.346ZM41.2498 156.654C44.7495 156.66 48.2492 156.66 51.754 156.66C52.082 156.66 52.082 156.007 51.754 156.007C48.2492 156.007 44.7495 156.007 41.2498 156C40.9167 156 40.9167 156.654 41.2498 156.654Z" fill="#1F2144"/>
<path fill-rule="evenodd" clip-rule="evenodd" d="M123.966 68.7265C123.966 68.4648 123.818 68.2686 123.652 68.2577C120.033 68.056 109.388 68.0451 108.555 68.0015C107.87 67.9579 108.012 68.901 108.012 69.07C108.047 72.8207 108.041 81.4069 108.138 83.2222C108.178 84.0345 108.263 84.4379 108.817 84.6396C109.873 85.0213 120.49 84.9613 123.104 84.9995C123.932 85.0158 123.886 84.6778 123.932 82.6008C124.109 73.9437 123.875 75.0122 123.966 68.7265Z" fill="#6554C0"/>
<path fill-rule="evenodd" clip-rule="evenodd" d="M119.75 76.3457C116.25 76.3457 112.751 76.3457 109.246 76.3391C108.918 76.3391 108.918 76.9935 109.246 76.9935C112.751 77 116.25 77 119.75 77C120.083 77 120.083 76.3457 119.75 76.3457ZM109.246 71.6543C112.751 71.6543 116.25 71.6543 119.75 71.6609C120.083 71.6609 120.083 71.0065 119.75 71.0065C116.25 71 112.751 71 109.246 71C108.918 71 108.918 71.6543 109.246 71.6543Z" fill="#1F2144"/>
<path fill-rule="evenodd" clip-rule="evenodd" d="M192.966 70.7265C192.966 70.4648 192.818 70.2686 192.652 70.2577C189.033 70.056 178.388 70.0451 177.555 70.0015C176.87 69.9579 177.012 70.901 177.012 71.07C177.047 74.8207 177.041 83.4069 177.138 85.2222C177.178 86.0345 177.263 86.4379 177.817 86.6396C178.873 87.0213 189.49 86.9613 192.104 86.9995C192.932 87.0158 192.886 86.6778 192.932 84.6008C193.109 75.9437 192.875 77.0122 192.966 70.7265Z" fill="#E7B05B"/>
<path fill-rule="evenodd" clip-rule="evenodd" d="M189.75 77.3457C186.25 77.3457 182.751 77.3457 179.246 77.3391C178.918 77.3391 178.918 77.9935 179.246 77.9935C182.751 78 186.25 78 189.75 78C190.083 78 190.083 77.3457 189.75 77.3457ZM179.246 72.6543C182.751 72.6543 186.25 72.6543 189.75 72.6609C190.083 72.6609 190.083 72.0065 189.75 72.0065C186.25 72 182.751 72 179.246 72C178.918 72 178.918 72.6543 179.246 72.6543Z" fill="#1F2144"/>
<path fill-rule="evenodd" clip-rule="evenodd" d="M214.966 70.7265C214.966 70.4648 214.818 70.2686 214.652 70.2577C211.033 70.056 200.388 70.0451 199.555 70.0015C198.87 69.9579 199.012 70.901 199.012 71.07C199.047 74.8207 199.041 83.4069 199.138 85.2222C199.178 86.0345 199.263 86.4379 199.817 86.6396C200.873 87.0213 211.49 86.9613 214.104 86.9995C214.932 87.0158 214.886 86.6778 214.932 84.6008C215.109 75.9437 214.875 77.0122 214.966 70.7265Z" fill="#E7B05B"/>
<path fill-rule="evenodd" clip-rule="evenodd" d="M212.75 77.3457C209.25 77.3457 205.751 77.3457 202.246 77.3391C201.918 77.3391 201.918 77.9935 202.246 77.9935C205.751 78 209.25 78 212.75 78C213.083 78 213.083 77.3457 212.75 77.3457ZM202.246 72.6543C205.751 72.6543 209.25 72.6543 212.75 72.6609C213.083 72.6609 213.083 72.0065 212.75 72.0065C209.25 72 205.751 72 202.246 72C201.918 72 201.918 72.6543 202.246 72.6543Z" fill="#1F2144"/>
<path fill-rule="evenodd" clip-rule="evenodd" d="M146.758 167.422C143.313 167.422 139.873 167.416 136.433 167.416C136.111 167.416 136.106 167.994 136.433 167.994C139.873 167.994 143.313 168 146.758 168C147.081 168 147.081 167.422 146.758 167.422ZM146.567 162.728C143.127 162.723 139.687 162.723 136.242 162.723C135.919 162.723 135.919 163.301 136.242 163.301C139.687 163.301 143.127 163.301 146.567 163.306C146.894 163.306 146.894 162.728 146.567 162.728ZM136.242 158.578C139.687 158.578 143.127 158.584 146.567 158.584C146.894 158.584 146.894 158.006 146.567 158.006C143.127 158.006 139.687 158 136.242 158C135.919 158 135.919 158.578 136.242 158.578Z" fill="#1F2144"/>
<path fill-rule="evenodd" clip-rule="evenodd" d="M36.3062 73.4884C38.6683 73.4884 41.0305 73.4884 43.3927 73.4933C43.613 73.4933 43.6181 73.0049 43.3927 73.0049C41.0305 73 38.6683 73 36.3062 73C36.0858 72.9952 36.0807 73.4835 36.3062 73.4884ZM46.754 76.5116C43.2492 76.5116 39.7495 76.5116 36.2498 76.5067C35.9167 76.5067 35.9167 76.9951 36.2498 76.9951C39.7495 77 43.2492 77 46.754 77C47.082 77 47.082 76.5116 46.754 76.5116Z" fill="#1F2144"/>
<path fill-rule="evenodd" clip-rule="evenodd" d="M270.364 112.223C270.18 112.376 270.006 112.535 269.827 112.694C269.594 112.535 269.361 112.371 269.128 112.207C269.318 112.196 269.513 112.18 269.703 112.164C269.925 112.186 270.142 112.201 270.364 112.223ZM311.975 103.186C311.672 103.012 311.357 102.848 311.048 102.678C310.897 102.456 310.707 102.254 310.463 102.095C306.907 99.839 303.021 98.4354 298.983 97.6197C291.958 95.5222 284.549 94.6536 277.183 95.125C271.296 95.4957 265.442 96.6716 259.93 98.7267C257.827 99.5106 254.553 100.347 253.854 102.773C253.691 103.319 253.702 103.87 253.832 104.384C253.523 104.998 253.615 105.718 253.973 106.312C253.502 106.841 253.16 107.466 253.035 108.234C252.775 109.776 253.979 111.306 255.702 110.84C256.461 110.639 257.225 110.438 257.984 110.236C260.662 113.107 263.675 115.671 266.971 117.848C267.432 119.14 268.792 120.093 270.212 119.866C272.028 120.962 274.267 122.217 276.418 122.779C276.803 124.431 279.042 125.623 280.793 124.855C281.654 125.93 283.112 126.471 284.462 125.475C284.663 125.321 284.858 125.168 285.058 125.014L285.064 125.019C285.08 125.003 285.091 124.993 285.107 124.977C288.072 122.742 290.842 120.332 293.422 117.747C296.116 115.729 298.734 113.621 301.254 111.396C302.739 110.088 302.105 107.959 300.777 106.915C300.717 106.815 300.647 106.714 300.566 106.619C304.007 106.799 307.449 106.989 310.88 107.138C313.076 107.233 313.775 104.219 311.975 103.186Z" fill="#FFDDD0"/>
<path fill-rule="evenodd" clip-rule="evenodd" d="M305.543 85.7227C305.097 82.7015 305.451 79.6474 304.373 76.7361C303.785 75.1486 303.034 73.7095 302.898 71.9792C302.778 70.3697 303.018 68.7493 303.05 67.1398C303.105 64.4373 302.833 61.7127 302.201 59.0816C299.796 49.0349 291.512 40.5811 280.849 41.048C280.659 41.048 280.555 41.0316 280.419 41.0261C269.686 40.4713 261.217 48.8481 258.801 58.9443C258.169 61.5754 257.897 64.2999 257.952 67.0025C257.979 68.6119 258.224 70.2324 258.099 71.8418C257.968 73.5721 257.211 75.0113 256.629 76.5988C255.551 79.5101 255.9 82.5642 255.453 85.5853C255.067 88.211 253.461 90.595 254.185 93.281C254.245 93.5008 254.474 93.704 254.713 93.6875C260.33 93.292 265.854 94.885 271.15 92.5944C274.068 91.331 280.365 90.8586 280.398 86.7224C280.468 86.7224 280.534 86.7224 280.604 86.7169C280.49 90.985 286.902 91.4574 289.852 92.7317C295.148 95.0223 300.672 93.4294 306.289 93.8248C306.523 93.8413 306.757 93.6381 306.817 93.4184C307.535 90.7323 305.935 88.3483 305.543 85.7227Z" fill="#1F2144"/>
<path fill-rule="evenodd" clip-rule="evenodd" d="M369.775 103.498C369.626 103.519 369.493 103.574 369.365 103.634C369.53 102.23 367.534 101.262 366.928 102.736C362.468 113.673 357.497 125.838 346.678 131.652C341.92 134.208 325.348 137.036 320.271 113.689C320.149 113.134 315.753 121.368 315.311 121.683C313.284 123.135 311.256 124.582 309.234 126.029C307.866 127.007 305.604 128.09 304.923 129.792C303.837 132.506 303.555 127.617 304.923 129.792C321.272 155.798 342.964 150.73 349.909 146.77C357.024 142.713 362.425 133.947 365.879 126.654C368.045 122.08 369.738 117.251 370.893 112.313C371.254 110.769 373.756 102.861 369.775 103.498Z" fill="#FFDDD0"/>
<path fill-rule="evenodd" clip-rule="evenodd" d="M244.002 280.371C244.117 299.933 252.712 366.809 252.827 386.372C252.832 387.019 253.259 387.465 253.827 387.688C257.02 388.929 259.432 386.252 260.197 383.411C261.515 378.492 261.892 373.083 262.636 368.05C265.309 349.897 266.786 331.684 267.917 313.385C269.087 294.546 271.067 275.784 273.981 257.13C274.249 255.416 271.613 254.682 271.346 256.407C271.22 257.223 271.099 258.039 270.974 258.855C267.458 259.089 263.696 259.47 260.645 261.342C257.349 263.366 252.925 246.895 252.193 250.524C248.371 269.423 243.887 261.201 244.002 280.371Z" fill="#FFDDD0"/>
<path fill-rule="evenodd" clip-rule="evenodd" d="M245.226 402.94C246.369 403.212 248.062 402.483 249.123 402.179C250.689 401.727 252.371 401.237 253.86 400.563C256.234 399.474 257.399 394.741 258.872 392.7C260.851 389.964 260.895 389.724 260.477 386.46C259.922 382.134 260.361 377.983 260.993 373.684C261.092 372.993 260.032 372.705 259.933 373.396C259.62 375.545 259.306 377.7 259.158 379.871C259.108 379.865 259.064 379.854 259.015 379.865C256.427 380.279 251.964 380.828 251.975 384.223C251.997 389.866 244.545 396.232 244.242 398.979C244.1 400.307 243.424 402.505 245.226 402.94Z" fill="#FFDDD0"/>
<path fill-rule="evenodd" clip-rule="evenodd" d="M243.347 405.751C243.883 406.251 244.902 405.861 245.48 405.762C247.363 405.449 249.252 405.141 251.125 404.768C253.539 404.284 255.279 403.389 256.303 400.989C257.024 399.309 257.603 397.65 258.255 396.03L258.467 400.44C258.473 400.577 258.584 400.72 258.733 400.709C259.131 400.687 259.513 400.638 259.91 400.561C260.017 400.544 260.107 400.407 260.101 400.297C259.916 397.09 260.197 393.921 260.95 390.802C261.216 390.219 260.351 389.665 259.948 390.247C259.178 391.362 258.473 392.515 257.852 393.712C257.247 394.877 256.717 396.09 256.282 397.354C256.144 397.744 256.032 398.144 255.916 398.545C255.894 398.545 255.884 398.534 255.862 398.529C252.096 398.188 248.939 397.875 245.177 398.26C244.997 398.282 244.801 398.463 244.753 398.644C244.413 399.929 242.148 404.636 243.347 405.751Z" fill="#1F2144"/>
<path fill-rule="evenodd" clip-rule="evenodd" d="M280 280.339C280.049 299.905 288.405 366.803 288.454 386.364C288.459 387.012 288.879 387.458 289.452 387.681C292.631 388.938 295.048 386.266 295.817 383.426C297.147 378.513 297.54 373.104 298.298 368.077C301.025 349.936 302.557 331.73 303.752 313.431C304.979 294.6 307.013 275.844 309.98 257.203C310.253 255.489 307.63 254.744 307.357 256.468C307.226 257.285 307.101 258.101 306.975 258.917C303.468 259.14 299.716 259.505 296.662 261.371C293.368 263.379 289.016 246.903 288.268 250.521C284.391 269.413 279.951 261.175 280 280.339Z" fill="#FFDDD0"/>
<path fill-rule="evenodd" clip-rule="evenodd" d="M307.189 179.747C307.114 177.601 308.351 169.443 307.46 167.415C306.471 165.182 251.291 165.041 251.193 165.112C250.939 163.719 251.458 175.785 251.377 177.4C250.934 186.393 247.682 190.084 245.614 198.719C243.518 207.473 232.65 286.26 237.031 318.512C237.128 319.255 237.641 319.851 238.381 319.867C254.423 320.247 274.565 320.539 293.33 320.751C295.182 311.639 298.245 274.676 300.719 265.689C300.945 264.876 301.961 264.844 302.404 265.467C304.888 268.979 300.918 312.614 300.8 320.68C305.639 320.729 315.211 320.962 319.559 321C320.342 321.005 320.898 320.371 320.909 319.639C321.411 290.325 319.942 236.207 313.785 207.153C310.16 190.046 307.449 186.777 307.189 179.747Z" fill="#6554C0"/>
<path fill-rule="evenodd" clip-rule="evenodd" d="M281.213 402.938C282.35 403.216 284.039 402.491 285.094 402.186C286.651 401.739 288.324 401.259 289.805 400.583C292.178 399.499 293.348 394.769 294.818 392.725C296.797 389.989 296.84 389.75 296.436 386.48C295.9 382.147 296.348 377.989 296.993 373.684C297.092 372.997 296.042 372.703 295.939 373.395C295.616 375.542 295.299 377.706 295.146 379.875C295.097 379.869 295.053 379.858 295.004 379.869C292.429 380.278 287.985 380.812 287.985 384.213C287.985 389.864 280.557 396.213 280.251 398.97C280.103 400.295 279.42 402.496 281.213 402.938Z" fill="#FFDDD0"/>
<path fill-rule="evenodd" clip-rule="evenodd" d="M278.342 404.75C278.871 405.251 279.893 404.86 280.47 404.766C282.348 404.458 284.233 404.16 286.101 403.785C288.514 403.311 290.25 402.419 291.282 400.016C292.007 398.33 292.59 396.671 293.246 395.045L293.442 399.465C293.447 399.608 293.558 399.751 293.706 399.74C294.103 399.718 294.484 399.669 294.881 399.597C294.987 399.575 295.077 399.443 295.072 399.333C294.897 396.114 295.188 392.934 295.95 389.81C296.215 389.22 295.352 388.663 294.95 389.248C294.177 390.361 293.474 391.518 292.849 392.714C292.24 393.888 291.711 395.1 291.272 396.362C291.134 396.753 291.018 397.156 290.901 397.564C290.885 397.558 290.87 397.547 290.848 397.547C287.091 397.189 283.947 396.864 280.194 397.238C280.009 397.255 279.813 397.442 279.766 397.624C279.427 398.914 277.151 403.62 278.342 404.75Z" fill="#1F2144"/>
<path fill-rule="evenodd" clip-rule="evenodd" d="M297 57.9624C297.027 54.5527 295.423 53.1257 292.659 51.6496C277.769 43.6646 264.401 50.9633 264.307 53.0603C263.934 61.5845 263.197 72.4562 267.192 80.1579C270.181 85.926 276.033 91.0296 282.714 88.1918C289.686 85.2342 296.862 76.8898 297 57.9624Z" fill="#FFDDD0"/>
<path fill-rule="evenodd" clip-rule="evenodd" d="M387.638 95.6398C388.238 94.9931 388.952 94.17 388.995 93.5339C389.114 91.8824 387.168 93.1063 386.585 93.6141C385.369 94.6884 384.174 95.7627 382.915 96.7889C382.288 97.3074 381.667 97.8525 381.008 98.3336C380.689 98.5687 378.868 99.6751 378.441 99.2315C380.17 97.5799 381.905 95.9284 383.623 94.2608C384.336 93.566 386.785 91.4601 386.158 90.2201C386.082 90.0651 385.947 89.9903 385.779 90.001C383.78 90.0812 381.759 92.3367 380.478 93.6622C379.619 94.5494 378.316 96.5591 377.122 96.9653C376.787 97.0829 376.501 97.0455 376.247 96.9172C375.987 96.5805 375.744 96.233 375.528 95.8536C375.409 95.5703 375.274 95.2977 375.123 95.0305C375.096 94.961 375.063 94.8968 375.036 94.822C375.004 94.7472 374.955 94.6991 374.896 94.6617C374.404 93.9187 373.75 93.2987 372.831 92.8872C371.269 92.1977 368.384 91.8129 367.071 93.1384C366.876 93.3362 367.006 93.5713 367.211 93.6569C367.341 93.8867 367.443 93.9294 367.784 94.0524C368.703 94.3891 369.681 94.4425 370.578 94.9022C371.767 95.5062 372.729 96.372 373.334 97.457C373.626 98.6917 373.409 99.9637 372.55 101.043C371.756 102.038 370.643 102.508 369.465 102.807C369.454 102.764 369.437 102.727 369.416 102.69C368.216 100.894 367.719 98.852 367.487 96.7301C367.384 95.8215 367.687 94.1486 366.773 93.582C366.606 93.4805 366.433 93.5232 366.314 93.6248C366.222 93.6515 366.141 93.7103 366.082 93.8118C365.233 95.442 364.866 97.4891 365.044 99.317C365.179 100.765 365.871 102.043 366.611 103.283C366.725 104.272 366.411 105.164 366.163 106.212C365.995 106.912 365.795 107.997 366.13 108.735C366.119 108.783 366.114 108.831 366.114 108.874C366.114 108.911 366.114 108.948 366.114 108.986C366.119 109.13 366.282 109.296 366.427 109.296C366.454 109.296 366.481 109.296 366.508 109.296C366.536 109.296 366.557 109.29 366.584 109.285C366.665 109.339 366.746 109.387 366.844 109.424C366.925 109.451 366.995 109.451 367.06 109.435C367.562 109.777 368.216 110.365 368.47 110.504C368.762 110.669 369.081 110.942 369.432 110.99C370.037 111.07 370.637 110.648 371.129 110.359C373.215 109.119 375.117 107.404 376.841 105.725C377.209 105.367 377.63 104.993 378.03 104.592C379.257 103.817 380.435 102.957 381.553 102.139C383.002 101.081 384.396 99.953 385.725 98.7611C386.536 98.0396 387.8 97.1684 387.828 95.9979C387.828 95.8322 387.768 95.7253 387.638 95.6398Z" fill="#FFDDD0"/>
<path fill-rule="evenodd" clip-rule="evenodd" d="M288.818 95.9967L291 68.1995C290.995 67.1445 288.577 70.5865 287.721 71.2312C283.367 74.4974 279.883 75.5044 274.678 76.0692C274.514 76.0852 274.376 76.1278 274.248 76.1864C273.52 76.1864 273.577 76.5488 273.582 77.5238C273.607 83.7578 272.25 95.8208 273.597 101.948C273.945 103.536 274.299 101.144 275.897 101.863C276.978 102.348 278.976 102.135 280.165 102.241C281.681 102.375 281.507 102.204 283.023 102.337C284.678 102.481 286.794 103.744 288.198 102.353C289.566 101 288.823 97.6324 288.818 95.9967Z" fill="#FFDDD0"/>
<path fill-rule="evenodd" clip-rule="evenodd" d="M192.826 149.366C192.454 148.758 191.151 148.385 190.586 148.072C189.703 147.589 188.852 147.068 188.001 146.53C187.759 144.161 186.041 142.213 184.592 140.277C183.316 138.571 181.512 134.747 178.863 135.164C178.653 135.197 178.448 135.45 178.567 135.675C179.283 137.008 180.435 138.055 181.248 139.339C181.728 140.09 182.137 140.875 182.492 141.681C181.808 141.105 181.081 140.584 180.333 140.26C177.926 138.796 175.416 137.534 172.789 136.525C171.13 135.888 168.551 134.583 166.741 135.131C166.628 135.17 166.531 135.302 166.515 135.422C166.348 137.008 169.703 137.858 170.758 138.269C172.869 139.108 174.926 140.03 176.935 141.078C176.87 141.149 176.806 141.215 176.741 141.286C176.666 141.358 176.596 141.434 176.52 141.511C174.054 140.579 171.572 139.701 169.062 138.911C167.387 138.379 165.061 137.441 163.306 137.973C163.149 138.022 163.079 138.209 163.085 138.362C163.101 139.098 163.785 139.295 164.372 139.591C165.643 140.244 166.973 140.771 168.314 141.259C170.408 142.016 172.525 142.674 174.593 143.491C174.566 143.519 174.544 143.546 174.523 143.574C172.288 142.872 170.015 142.23 167.705 141.84C166.601 141.654 163.92 141.017 163.079 142.098C162.999 142.202 162.977 142.345 163.026 142.471C163.462 143.557 165.492 143.93 166.73 144.221C165.907 144.188 165.077 144.199 164.243 144.254C163.957 144.276 163.844 144.627 163.995 144.846C164.824 146.059 167.237 146.382 168.588 146.733C170.683 147.282 172.799 147.704 174.862 148.352C174.975 148.45 175.083 148.544 175.19 148.637C176.666 149.942 178.362 151.352 180.101 152.268C180.715 152.592 181.281 152.74 181.814 152.751C182.379 152.894 182.982 152.899 183.682 152.877C186.326 152.784 188.464 153.294 190.618 154.923C190.893 155.126 191.227 154.89 191.324 154.633C191.744 153.503 193.564 150.579 192.826 149.366Z" fill="#FFDDD0"/>
<path fill-rule="evenodd" clip-rule="evenodd" d="M297.139 64.5878C295.566 63.167 292.849 64.5577 292.319 66.2555C292.204 66.6288 292.459 66.8575 292.772 66.9057C292.498 67.5198 292.331 68.2482 292.287 68.9707C292.287 68.9767 292.287 68.9767 292.287 68.9767C292.037 69.8376 291.941 70.6865 292.088 71.2886C292.095 71.5956 292.108 71.9026 292.133 72.2097C291.993 72.5589 291.941 72.9141 292.088 73.2452C293.041 75.3764 296.013 72.4144 296.563 71.4752C297.548 69.7774 298.916 66.1893 297.139 64.5878Z" fill="#FFDDD0"/>
<path fill-rule="evenodd" clip-rule="evenodd" d="M298.432 61.6575C298.465 61.6073 298.492 61.5516 298.509 61.4848C299.297 61.4737 300.156 60.7328 299.976 59.6131C299.718 58.02 299.209 56.5662 298.525 55.2293C298.996 54.8171 299.242 54.1096 298.853 53.3688C297.304 50.4387 294.381 48.4891 291.184 47.3138C291.184 46.5618 290.746 45.7652 289.875 45.6705C287.368 45.3976 284.855 45.2583 282.337 45.2806C282.266 44.8071 281.965 44.4005 281.374 44.2779C279.315 43.849 277.459 44.2222 275.598 44.7792C275.308 44.2445 274.75 43.8768 274.076 44.0384C272.888 44.3225 271.706 44.9296 270.573 45.6594C270.085 45.1246 269.259 44.8907 268.569 45.4923C266.648 47.1634 264.606 49.0294 264.272 51.8091C264.2 52.3884 264.48 52.8173 264.879 53.0512C264.009 55.0844 263.379 57.2402 263.023 59.5129C262.815 60.8275 264.036 61.6185 264.896 61.3344C264.737 62.1922 264.622 63.0612 264.556 63.9413C264.502 64.6822 265.503 64.7212 265.629 64.0416C265.635 64.0305 265.64 64.0249 265.646 64.0137C267.2 59.3123 271.208 57.3404 275.171 55.6972C277.974 54.533 279.934 52.4274 281.188 49.6032C281.505 51.2854 282.009 52.9398 283.098 54.2823C284.653 56.2041 286.958 56.6386 289.021 57.7526C291.616 59.1508 292.678 61.4792 294.589 63.5681C295.175 64.2031 297.2 65.2671 297.408 64.9384C297.819 64.8939 298.246 64.7546 298.695 64.4817C299.45 64.0249 299.001 62.9442 298.301 62.9219C298.361 62.7994 298.405 62.6657 298.415 62.493C298.432 62.2145 298.437 61.936 298.432 61.6575Z" fill="#1F2144"/>
<path fill-rule="evenodd" clip-rule="evenodd" d="M266.979 70.6481C266.651 69.8779 266.47 69.0665 266.431 68.2188C266.419 67.9271 265.987 67.9271 266 68.2188C266.043 69.1486 266.246 70.0328 266.608 70.8806C266.72 71.1495 267.091 70.9171 266.979 70.6481Z" fill="#DB745E"/>
<path fill-rule="evenodd" clip-rule="evenodd" d="M271.682 53.4599C269.399 56.1326 267.106 58.9224 265.606 62.0637C265.473 60.6353 263.302 60.1109 262.918 61.7401C261.164 69.1276 260.214 76.6433 260.058 84.2317C259.997 84.6836 259.981 85.1579 260.025 85.6545C260.186 87.4121 262.791 87.4846 262.802 85.6545C262.807 85.3197 262.818 84.9793 262.824 84.639C263.107 82.4462 264.868 80.6774 265.745 78.6576C266.772 76.2862 266.722 73.7419 266.678 71.2032C266.573 64.6248 269.51 60.2727 273.647 55.4351C274.803 54.0793 272.848 52.0929 271.682 53.4599Z" fill="#1F2144"/>
<path fill-rule="evenodd" clip-rule="evenodd" d="M308 182.938C307.973 182.76 307.946 182.582 307.924 182.403C306.043 182.339 304.163 182.279 302.282 182.225C301.691 177.538 301.019 172.861 300.266 168.195C300.212 167.855 299.691 167.995 299.746 168.341C300.488 172.953 301.155 177.576 301.735 182.209C288.543 181.847 275.346 181.793 262.149 182.079C258.468 182.155 254.788 182.268 251.108 182.398C251.076 182.582 251.038 182.765 251 182.938C267.926 182.349 284.868 182.279 301.8 182.744C304.25 202.428 305.252 222.285 304.764 242.12C304.596 249 304.25 255.875 303.729 262.739C303.702 263.09 304.244 263.084 304.271 262.739C306.136 238.097 305.74 213.299 303.052 188.727C302.835 186.74 302.596 184.747 302.347 182.76C304.212 182.814 306.071 182.868 307.93 182.933C307.957 182.933 307.978 182.933 308 182.938Z" fill="#2E16AD"/>
<path d="M308 182.938C307.973 182.76 307.946 182.582 307.924 182.403C306.043 182.339 304.163 182.279 302.282 182.225C301.691 177.538 301.019 172.861 300.266 168.195C300.212 167.855 299.691 167.995 299.746 168.341C300.488 172.953 301.155 177.576 301.735 182.209C288.543 181.847 275.346 181.793 262.149 182.079C258.468 182.155 254.788 182.268 251.108 182.398C251.076 182.582 251.038 182.765 251 182.938C267.926 182.349 284.868 182.279 301.8 182.744C304.249 202.428 305.252 222.285 304.764 242.12C304.596 249 304.249 255.875 303.729 262.739C303.702 263.09 304.244 263.084 304.271 262.739C306.136 238.097 305.74 213.299 303.052 188.727C302.835 186.74 302.596 184.747 302.347 182.76C304.212 182.814 306.071 182.868 307.93 182.933C307.957 182.933 307.978 182.933 308 182.938" stroke="#2D01B0" stroke-width="0.5"/>
<path fill-rule="evenodd" clip-rule="evenodd" d="M269.584 112.165C269.349 111.994 269.125 111.823 268.895 111.652C269.082 111.647 269.274 111.625 269.461 111.608C269.68 111.63 269.894 111.647 270.113 111.669C269.931 111.829 269.76 111.994 269.584 112.165ZM311 106.176C310.931 104.182 310.257 102.413 309.205 100.87C305.824 98.6886 302.154 97.3002 298.345 96.4903C298.051 96.8374 297.731 97.2231 297.351 97.6308C294.312 100.865 290.615 103.509 286.417 104.859C277.875 107.597 268.932 104.17 264.675 96C263.04 96.4683 261.416 97.0082 259.83 97.6308C257.757 98.4462 254.531 99.3222 253.842 101.84C253.681 102.413 253.692 102.986 253.82 103.515C253.516 104.154 253.606 104.909 253.959 105.52C253.494 106.071 253.158 106.727 253.035 107.526C252.778 109.129 253.964 110.716 255.663 110.236C256.411 110.022 257.164 109.812 257.912 109.603C260.551 112.589 263.521 115.261 266.769 117.52C267.223 118.864 268.558 119.856 269.963 119.619C271.753 120.759 273.959 122.071 276.08 122.655C276.459 124.368 278.665 125.613 280.391 124.814C281.24 125.927 282.677 126.489 284.007 125.453C284.205 125.299 284.397 125.134 284.595 124.974C284.595 124.98 284.6 124.98 284.6 124.98C284.616 124.969 284.627 124.952 284.643 124.936C287.565 122.611 290.295 120.109 292.837 117.415C295.492 115.316 298.073 113.129 300.557 110.809C302.02 109.449 301.395 107.234 300.086 106.154C300.022 106.044 299.958 105.939 299.878 105.845C303.27 106.027 306.662 106.226 310.044 106.38C310.407 106.396 310.728 106.314 311 106.176Z" fill="white"/>
<path fill-rule="evenodd" clip-rule="evenodd" d="M369.659 123.417C370.13 122.462 370.363 121.227 370.623 120.498C371.045 119.301 372.4 117.112 371.885 115.811C371.332 114.417 368.51 113.824 367.308 113.281C365.829 112.617 363.321 110.795 361.658 110.932C360.461 111.031 360.125 111.882 359.637 112.908C358.749 114.79 358.012 116.76 357.34 118.741C354.589 117.902 352.108 119.395 350.038 121.42C348.316 123.104 346.777 124.992 344.421 125.81C341.604 126.787 338.825 125.76 336.258 124.58C334.725 123.878 333.116 123.631 331.496 123.494C328.349 121.441 325.494 119.049 323.143 115.888C320.803 112.727 313.284 103.452 312.082 102.163C309.438 99.3366 306.091 97.2348 302.012 96C295.902 104.737 288.589 112.677 280.241 119.224C279.645 119.691 278.724 120.053 278.026 119.515C273.362 115.921 257.864 97.9976 256.921 96.3732C242.886 101.499 236.499 112.612 230.107 125.749C227.93 129.135 225.855 132.735 223.228 135.759C220.671 138.701 217.242 140.649 214.588 143.502C212.876 145.346 211.462 146.779 208.754 146.866C207.009 146.921 205.287 146.532 203.543 146.779C202.194 146.971 201.008 147.432 200.076 148.211C199.269 147.832 198.462 147.448 197.66 147.064C196.766 146.641 195.845 146.06 194.865 145.912C194.653 145.879 194.464 145.912 194.296 145.972C193.77 145.824 193.142 146.016 192.942 146.691C192.416 148.425 191.891 150.154 191.371 151.882C190.959 153.232 189.914 155.318 190.006 156.728C190.147 158.824 194.101 159.697 195.899 160.268C199.518 164.351 203.662 168.653 209.388 169.087C212.448 169.312 215.26 167.879 218.277 167.731C221.716 167.561 225.005 168.521 228.482 168.132C231.034 167.846 233.943 167.649 236.239 166.398C238.65 165.08 240.432 162.605 242.079 160.454C243.823 158.182 245.378 155.79 246.764 153.304C247.75 156.355 248.503 159.543 248.471 161.409C248.39 166.458 248.184 167.347 249.5 172.27C249.847 173.559 250.248 174.827 250.686 176.084C259.429 177.269 275.756 175.804 284.098 175.743C288.67 175.716 299.834 176.391 304.374 176.907C304.65 176.94 304.937 176.967 305.219 177C305.842 176.149 306.47 175.31 307.06 174.432C308.545 172.237 308.491 169.273 309.281 166.754C310.403 163.198 312.196 151.827 313.479 146.724C315.289 147.783 318.75 149.566 320.57 150.604C323.647 152.349 326.892 154.017 330.478 154.198C334.037 154.374 337.655 153.046 340.922 151.762C342.753 151.043 344.524 150.049 346.474 149.748C348.695 149.407 350.921 150.011 353.153 149.709C358.532 148.985 365.054 143.64 366.538 138.295C367.118 136.204 367.438 134.53 368.738 132.702C369.729 131.314 370.818 129.937 371.219 128.23C371.663 126.32 371.062 124.504 369.659 123.417Z" fill="#DBAD7F"/>
<path fill-rule="evenodd" clip-rule="evenodd" d="M244.557 106.231C244.373 106.415 244.184 106.593 244 106.783C244.373 118.236 248.648 129.922 248.388 141.338C248.28 146.272 247.452 151.152 246.576 156C246.841 155.567 247.1 155.124 247.355 154.685C247.955 151.309 248.496 147.922 248.767 144.503C249.108 140.159 248.87 135.841 248.264 131.535C247.079 123.089 244.72 114.795 244.557 106.231ZM310.136 136.301C308.485 132.503 306.965 128.597 306.256 124.501C305.531 120.271 305.802 115.904 306.992 111.782C307.977 108.368 309.584 105.176 311.705 102.352C311.575 102.233 311.434 102.119 311.299 102C307.279 107.351 305.093 114.027 305.326 120.752C305.629 129.327 310.038 136.94 313.225 144.687C313.626 145.661 314.01 146.646 314.362 147.636C314.372 147.598 314.383 147.56 314.389 147.522C314.578 147.63 314.784 147.749 315 147.868C313.626 143.93 311.791 140.11 310.136 136.301Z" fill="#C79240"/>
<path fill-rule="evenodd" clip-rule="evenodd" d="M340.645 129.039C338.551 130.351 336.374 131.529 334.125 132.559C333.844 132.688 334.086 133.105 334.367 132.975C336.622 131.941 338.793 130.768 340.887 129.451C341.149 129.288 340.907 128.871 340.645 129.039Z" fill="#C79240"/>
<path fill-rule="evenodd" clip-rule="evenodd" d="M199.51 152.165C198.68 154.348 197.846 156.526 197.017 158.708C196.905 159 197.378 159.126 197.485 158.834C198.32 156.657 199.149 154.474 199.983 152.296C200.095 152 199.622 151.874 199.51 152.165Z" fill="#C79240"/>
<path fill-rule="evenodd" clip-rule="evenodd" d="M214.874 164.385C212.937 162.805 211.144 161.037 209.488 159.096C209.23 158.799 208.827 159.257 209.08 159.554C210.77 161.534 212.609 163.327 214.586 164.939C214.885 165.184 215.173 164.623 214.874 164.385Z" fill="#C79240"/>
<path fill-rule="evenodd" clip-rule="evenodd" d="M214.784 167.483C212.882 166.911 211.138 166.102 209.558 165.061C209.241 164.855 208.791 165.216 209.108 165.427C210.776 166.525 212.603 167.375 214.613 167.983C215 168.097 215.165 167.602 214.784 167.483Z" fill="#C79240"/>
<path fill-rule="evenodd" clip-rule="evenodd" d="M369.817 124.483C366.321 123.325 362.825 122.151 359.323 121.014C359.002 120.909 358.86 121.418 359.181 121.522C362.688 122.659 366.179 123.828 369.68 124.986C370.001 125.091 370.138 124.588 369.817 124.483Z" fill="#C79240"/>
</svg>
